<svg width="1024" height="1024" viewBox="0 0 1024 1024" fill="none" xmlns="http://www.w3.org/2000/svg">
<g clip-path="url(#clip0_102_49)">
<rect width="1024" height="1024" rx="177" fill="#211F22"/>
<g filter="url(#filter0_d_102_49)">
<path d="M934.912 672.862C934.912 693.007 918.582 709.338 898.436 709.338C878.29 709.338 861.957 693.008 861.957 672.862C861.957 652.717 878.291 636.383 898.436 636.383C918.581 636.383 934.912 652.717 934.912 672.862Z" fill="#E1E1E1"/>
<path d="M808.71 362.51C808.71 378.779 795.521 391.968 779.252 391.968C762.98 391.968 749.791 378.779 749.791 362.51C749.791 346.241 762.98 333.052 779.252 333.052C795.521 333.052 808.71 346.241 808.71 362.51Z" fill="white"/>
<path d="M791.074 821.643C791.074 839.463 776.628 853.91 758.807 853.91C740.986 853.91 726.54 839.463 726.54 821.643C726.54 803.822 740.986 789.375 758.807 789.375C776.628 789.375 791.074 803.822 791.074 821.643Z" fill="#E1E1E1"/>
<path d="M923.488 428.426C903.369 428.426 887.03 444.753 887.03 464.902C887.03 485.053 903.366 501.378 923.488 501.378C943.648 501.378 959.964 485.051 959.964 464.902C959.964 444.753 943.648 428.426 923.488 428.426Z" fill="#E1E1E1"/>
<path d="M653.807 703.774C653.807 719.267 641.245 731.829 625.752 731.829C610.255 731.829 597.696 719.267 597.696 703.774C597.696 688.281 610.255 675.719 625.752 675.719C641.245 675.719 653.807 688.281 653.807 703.774Z" fill="#C7C7C7"/>
<path d="M862.336 223.876C862.336 239.37 849.774 251.929 834.281 251.929C818.787 251.929 806.225 239.37 806.225 223.876C806.225 208.38 818.787 195.821 834.281 195.821C849.774 195.821 862.336 208.38 862.336 223.876Z" fill="white"/>
<path d="M259.858 679.739C259.858 695.223 247.305 707.774 231.823 707.774C216.339 707.774 203.788 695.223 203.788 679.739C203.788 664.257 216.339 651.704 231.823 651.704C247.304 651.704 259.858 664.257 259.858 679.739Z" fill="#E1E1E1"/>
<path d="M468.036 766.725C468.036 795.189 444.96 818.263 416.496 818.263C388.032 818.263 364.956 795.189 364.956 766.725C364.956 738.259 388.032 715.185 416.496 715.185C444.96 715.185 468.036 738.259 468.036 766.725Z" fill="#E1E1E1"/>
<path d="M791.918 671.705C791.918 700.174 768.838 723.254 740.366 723.254C711.896 723.254 688.817 700.174 688.817 671.705C688.817 643.232 711.896 620.152 740.366 620.152C768.838 620.152 791.918 643.232 791.918 671.705Z" fill="#E1E1E1"/>
<path d="M401.911 556.113C401.911 573.928 387.471 588.371 369.656 588.371C351.841 588.371 337.401 573.928 337.401 556.113C337.401 538.301 351.841 523.858 369.656 523.858C387.471 523.858 401.911 538.301 401.911 556.113Z" fill="#C7C7C7"/>
<path d="M287.671 830.08C287.671 847.131 273.849 860.953 256.801 860.953C239.75 860.953 225.928 847.131 225.928 830.08C225.928 813.029 239.75 799.207 256.801 799.207C273.849 799.207 287.671 813.029 287.671 830.08Z" fill="#E1E1E1"/>
<path d="M753.748 471.949C753.748 488.218 740.559 501.407 724.29 501.407C708.021 501.407 694.832 488.218 694.832 471.949C694.832 455.68 708.021 442.491 724.29 442.491C740.559 442.491 753.748 455.68 753.748 471.949Z" fill="white"/>
<path d="M275.538 409.415C275.538 427.236 261.092 441.683 243.271 441.683C225.45 441.683 211.004 427.236 211.004 409.415C211.004 391.595 225.45 377.148 243.271 377.148C261.092 377.148 275.538 391.595 275.538 409.415Z" fill="#E1E1E1"/>
<path d="M616.474 574.339C616.474 594.482 600.146 610.806 580.003 610.806C559.864 610.806 543.536 594.482 543.536 574.339C543.536 554.199 559.864 537.872 580.003 537.872C600.146 537.872 616.474 554.199 616.474 574.339Z" fill="#C7C7C7"/>
<path d="M607.275 785.161C591.772 785.161 579.198 797.734 579.198 813.205C579.198 828.724 591.781 841.281 607.275 841.281C622.756 841.281 635.31 828.707 635.31 813.205C635.319 797.734 622.754 785.161 607.275 785.161Z" fill="#E1E1E1"/>
<path d="M562.266 468.977C562.266 484.476 549.701 497.041 534.201 497.041C518.702 497.041 506.137 484.476 506.137 468.977C506.137 453.475 518.702 440.91 534.201 440.91C549.701 440.91 562.266 453.475 562.266 468.977Z" fill="#E1E1E1"/>
<path d="M541.635 97.88C541.635 113.379 529.07 125.944 513.571 125.944C498.072 125.944 485.507 113.379 485.507 97.88C485.507 82.3777 498.072 69.8128 513.571 69.8128C529.07 69.8128 541.635 82.3777 541.635 97.88Z" fill="#C7C7C7"/>
<path d="M476.347 651.097C476.347 666.59 463.785 679.152 448.291 679.152C432.798 679.152 420.236 666.59 420.236 651.097C420.236 635.603 432.798 623.041 448.291 623.041C463.785 623.041 476.347 635.603 476.347 651.097Z" fill="white"/>
<path d="M700.996 118.416C700.996 134.685 687.807 147.875 671.538 147.875C655.269 147.875 642.08 134.685 642.08 118.416C642.08 102.147 655.269 88.9581 671.538 88.9581C687.807 88.9581 700.996 102.147 700.996 118.416Z" fill="#C7C7C7"/>
<path d="M679.963 357.94C679.963 373.434 667.404 385.993 651.91 385.993C636.414 385.993 623.855 373.434 623.855 357.94C623.855 342.444 636.414 329.885 651.91 329.885C667.404 329.885 679.963 342.444 679.963 357.94Z" fill="#E1E1E1"/>
<path d="M314.843 136.826C314.843 152.319 302.284 164.878 286.79 164.878C271.294 164.878 258.735 152.319 258.735 136.826C258.735 121.33 271.294 108.771 286.79 108.771C302.284 108.771 314.843 121.33 314.843 136.826Z" fill="#E1E1E1"/>
<path d="M494.177 371.649C494.177 400.113 471.104 423.189 442.637 423.189C414.173 423.189 391.097 400.113 391.097 371.649C391.097 343.182 414.173 320.109 442.637 320.109C471.104 320.109 494.177 343.182 494.177 371.649Z" fill="#E1E1E1"/>
<path d="M309.534 260.523C309.534 280.668 293.204 297.001 273.058 297.001C252.91 297.001 236.579 280.668 236.579 260.523C236.579 240.378 252.91 224.047 273.058 224.047C293.203 224.047 309.534 240.377 309.534 260.523Z" fill="#C7C7C7"/>
<path d="M167.809 498.172C167.809 515.992 153.363 530.436 135.542 530.436C117.724 530.436 103.278 515.992 103.278 498.172C103.278 480.351 117.724 465.905 135.542 465.905C153.363 465.905 167.809 480.351 167.809 498.172Z" fill="#E1E1E1"/>
<path d="M646.057 227.856C646.057 244.125 632.867 257.314 616.595 257.314C600.326 257.314 587.137 244.125 587.137 227.856C587.137 211.587 600.326 198.398 616.595 198.398C632.867 198.398 646.057 211.587 646.057 227.856Z" fill="white"/>
<path d="M507.378 178.419C507.378 198.567 491.048 214.898 470.902 214.898C450.757 214.898 434.424 198.567 434.424 178.419C434.424 158.274 450.757 141.943 470.902 141.943C491.047 141.943 507.378 158.273 507.378 178.419Z" fill="#E1E1E1"/>
<path d="M114.493 643.921C114.493 657.866 103.191 669.167 89.247 669.167C75.3053 669.167 64.0007 657.865 64.0007 643.921C64.0007 629.976 75.306 618.675 89.247 618.675C103.192 618.675 114.493 629.977 114.493 643.921Z" fill="#E1E1E1"/>
<path d="M147.41 312.356C147.41 326.301 136.105 337.606 122.164 337.606C108.219 337.606 96.9145 326.3 96.9145 312.356C96.9145 298.415 108.22 287.11 122.164 287.11C136.106 287.11 147.41 298.415 147.41 312.356Z" fill="#C7C7C7"/>
<path d="M548.385 921.92C548.385 939.738 533.939 954.184 516.118 954.184C498.297 954.184 483.854 939.738 483.854 921.92C483.854 904.099 498.297 889.653 516.118 889.653C533.939 889.653 548.385 904.099 548.385 921.92Z" fill="white"/>
</g>
<path d="M934.912 672.862C934.912 693.007 918.582 709.338 898.436 709.338C878.29 709.338 861.957 693.008 861.957 672.862C861.957 652.717 878.291 636.383 898.436 636.383C918.581 636.383 934.912 652.717 934.912 672.862Z" fill="#E1E1E1"/>
<path d="M808.71 362.51C808.71 378.779 795.521 391.968 779.252 391.968C762.98 391.968 749.791 378.779 749.791 362.51C749.791 346.241 762.98 333.052 779.252 333.052C795.521 333.052 808.71 346.241 808.71 362.51Z" fill="white"/>
<path d="M791.074 821.643C791.074 839.463 776.628 853.91 758.807 853.91C740.986 853.91 726.54 839.463 726.54 821.643C726.54 803.822 740.986 789.375 758.807 789.375C776.628 789.375 791.074 803.822 791.074 821.643Z" fill="#E1E1E1"/>
<path d="M923.488 428.426C903.369 428.426 887.03 444.753 887.03 464.902C887.03 485.053 903.366 501.378 923.488 501.378C943.648 501.378 959.964 485.051 959.964 464.902C959.964 444.753 943.648 428.426 923.488 428.426Z" fill="#E1E1E1"/>
<path d="M653.807 703.774C653.807 719.267 641.245 731.829 625.752 731.829C610.255 731.829 597.696 719.267 597.696 703.774C597.696 688.281 610.255 675.719 625.752 675.719C641.245 675.719 653.807 688.281 653.807 703.774Z" fill="#C7C7C7"/>
<path d="M862.336 223.876C862.336 239.37 849.774 251.929 834.281 251.929C818.787 251.929 806.225 239.37 806.225 223.876C806.225 208.38 818.787 195.821 834.281 195.821C849.774 195.821 862.336 208.38 862.336 223.876Z" fill="white"/>
<path d="M259.858 679.739C259.858 695.223 247.305 707.774 231.823 707.774C216.339 707.774 203.788 695.223 203.788 679.739C203.788 664.257 216.339 651.704 231.823 651.704C247.304 651.704 259.858 664.257 259.858 679.739Z" fill="#E1E1E1"/>
<path d="M468.036 766.725C468.036 795.189 444.96 818.263 416.496 818.263C388.032 818.263 364.956 795.189 364.956 766.725C364.956 738.259 388.032 715.185 416.496 715.185C444.96 715.185 468.036 738.259 468.036 766.725Z" fill="#E1E1E1"/>
<path d="M791.918 671.705C791.918 700.174 768.838 723.254 740.366 723.254C711.896 723.254 688.817 700.174 688.817 671.705C688.817 643.232 711.896 620.152 740.366 620.152C768.838 620.152 791.918 643.232 791.918 671.705Z" fill="#E1E1E1"/>
<path d="M401.911 556.113C401.911 573.928 387.471 588.371 369.656 588.371C351.841 588.371 337.401 573.928 337.401 556.113C337.401 538.301 351.841 523.858 369.656 523.858C387.471 523.858 401.911 538.301 401.911 556.113Z" fill="#C7C7C7"/>
<path d="M287.671 830.08C287.671 847.131 273.849 860.953 256.801 860.953C239.75 860.953 225.928 847.131 225.928 830.08C225.928 813.029 239.75 799.207 256.801 799.207C273.849 799.207 287.671 813.029 287.671 830.08Z" fill="#E1E1E1"/>
<path d="M753.748 471.949C753.748 488.218 740.559 501.407 724.29 501.407C708.021 501.407 694.832 488.218 694.832 471.949C694.832 455.68 708.021 442.491 724.29 442.491C740.559 442.491 753.748 455.68 753.748 471.949Z" fill="white"/>
<path d="M275.538 409.415C275.538 427.236 261.092 441.683 243.271 441.683C225.45 441.683 211.004 427.236 211.004 409.415C211.004 391.595 225.45 377.148 243.271 377.148C261.092 377.148 275.538 391.595 275.538 409.415Z" fill="#E1E1E1"/>
<path d="M616.474 574.339C616.474 594.482 600.146 610.806 580.003 610.806C559.864 610.806 543.536 594.482 543.536 574.339C543.536 554.199 559.864 537.872 580.003 537.872C600.146 537.872 616.474 554.199 616.474 574.339Z" fill="#C7C7C7"/>
<path d="M607.275 785.161C591.772 785.161 579.198 797.734 579.198 813.205C579.198 828.724 591.781 841.281 607.275 841.281C622.756 841.281 635.31 828.707 635.31 813.205C635.319 797.734 622.754 785.161 607.275 785.161Z" fill="#E1E1E1"/>
<path d="M562.266 468.977C562.266 484.476 549.701 497.041 534.201 497.041C518.702 497.041 506.137 484.476 506.137 468.977C506.137 453.475 518.702 440.91 534.201 440.91C549.701 440.91 562.266 453.475 562.266 468.977Z" fill="#E1E1E1"/>
<path d="M541.635 97.88C541.635 113.379 529.07 125.944 513.571 125.944C498.072 125.944 485.507 113.379 485.507 97.88C485.507 82.3777 498.072 69.8128 513.571 69.8128C529.07 69.8128 541.635 82.3777 541.635 97.88Z" fill="#C7C7C7"/>
<path d="M476.347 651.097C476.347 666.59 463.785 679.152 448.291 679.152C432.798 679.152 420.236 666.59 420.236 651.097C420.236 635.603 432.798 623.041 448.291 623.041C463.785 623.041 476.347 635.603 476.347 651.097Z" fill="white"/>
<path d="M700.996 118.416C700.996 134.685 687.807 147.875 671.538 147.875C655.269 147.875 642.08 134.685 642.08 118.416C642.08 102.147 655.269 88.9581 671.538 88.9581C687.807 88.9581 700.996 102.147 700.996 118.416Z" fill="#C7C7C7"/>
<path d="M679.963 357.94C679.963 373.434 667.404 385.993 651.91 385.993C636.414 385.993 623.855 373.434 623.855 357.94C623.855 342.444 636.414 329.885 651.91 329.885C667.404 329.885 679.963 342.444 679.963 357.94Z" fill="#E1E1E1"/>
<path d="M314.843 136.826C314.843 152.319 302.284 164.878 286.79 164.878C271.294 164.878 258.735 152.319 258.735 136.826C258.735 121.33 271.294 108.771 286.79 108.771C302.284 108.771 314.843 121.33 314.843 136.826Z" fill="#E1E1E1"/>
<path d="M494.177 371.649C494.177 400.113 471.104 423.189 442.637 423.189C414.173 423.189 391.097 400.113 391.097 371.649C391.097 343.182 414.173 320.109 442.637 320.109C471.104 320.109 494.177 343.182 494.177 371.649Z" fill="#E1E1E1"/>
<path d="M309.534 260.523C309.534 280.668 293.204 297.001 273.058 297.001C252.91 297.001 236.579 280.668 236.579 260.523C236.579 240.378 252.91 224.047 273.058 224.047C293.203 224.047 309.534 240.377 309.534 260.523Z" fill="#C7C7C7"/>
<path d="M167.809 498.172C167.809 515.992 153.363 530.436 135.542 530.436C117.724 530.436 103.278 515.992 103.278 498.172C103.278 480.351 117.724 465.905 135.542 465.905C153.363 465.905 167.809 480.351 167.809 498.172Z" fill="#E1E1E1"/>
<path d="M646.057 227.856C646.057 244.125 632.867 257.314 616.595 257.314C600.326 257.314 587.137 244.125 587.137 227.856C587.137 211.587 600.326 198.398 616.595 198.398C632.867 198.398 646.057 211.587 646.057 227.856Z" fill="white"/>
<path d="M507.378 178.419C507.378 198.567 491.048 214.898 470.902 214.898C450.757 214.898 434.424 198.567 434.424 178.419C434.424 158.274 450.757 141.943 470.902 141.943C491.047 141.943 507.378 158.273 507.378 178.419Z" fill="#E1E1E1"/>
<path d="M114.493 643.921C114.493 657.866 103.191 669.167 89.247 669.167C75.3053 669.167 64.0007 657.865 64.0007 643.921C64.0007 629.976 75.306 618.675 89.247 618.675C103.192 618.675 114.493 629.977 114.493 643.921Z" fill="#E1E1E1"/>
<path d="M147.41 312.356C147.41 326.301 136.105 337.606 122.164 337.606C108.219 337.606 96.9145 326.3 96.9145 312.356C96.9145 298.415 108.22 287.11 122.164 287.11C136.106 287.11 147.41 298.415 147.41 312.356Z" fill="#C7C7C7"/>
<path d="M548.385 921.92C548.385 939.738 533.939 954.184 516.118 954.184C498.297 954.184 483.854 939.738 483.854 921.92C483.854 904.099 498.297 889.653 516.118 889.653C533.939 889.653 548.385 904.099 548.385 921.92Z" fill="white"/>
</g>
<defs>
<filter id="filter0_d_102_49" x="48.0007" y="53.8128" width="927.963" height="916.372" filterUnits="userSpaceOnUse" color-interpolation-filters="sRGB">
<feFlood flood-opacity="0" result="BackgroundImageFix"/>
<feColorMatrix in="SourceAlpha" type="matrix" values="0 0 0 0 0 0 0 0 0 0 0 0 0 0 0 0 0 0 127 0" result="hardAlpha"/>
<feOffset/>
<feGaussianBlur stdDeviation="8"/>
<feComposite in2="hardAlpha" operator="out"/>
<feColorMatrix type="matrix" values="0 0 0 0 1 0 0 0 0 1 0 0 0 0 1 0 0 0 1 0"/>
<feBlend mode="normal" in2="BackgroundImageFix" result="effect1_dropShadow_102_49"/>
<feBlend mode="normal" in="SourceGraphic" in2="effect1_dropShadow_102_49" result="shape"/>
</filter>
<clipPath id="clip0_102_49">
<rect width="1024" height="1024" fill="white"/>
</clipPath>
</defs>
</svg>
